<svg fill="none" xmlns="http://www.w3.org/2000/svg" viewBox="0 0 61 60"><path fill-rule="evenodd" clip-rule="evenodd" d="M18.3477 12.9773C20.1559 12.9773 21.6218 11.5114 21.6218 9.70313C21.6218 7.89486 20.1559 6.42898 18.3477 6.42898C16.5394 6.42898 15.0735 7.89486 15.0735 9.70313C15.0735 11.5114 16.5394 12.9773 18.3477 12.9773ZM20.7474 16.4968C23.5458 15.5084 25.5508 12.8399 25.5508 9.70313C25.5508 5.72495 22.3258 2.5 18.3477 2.5C14.3695 2.5 11.1445 5.72495 11.1445 9.70313C11.1445 12.8397 13.1493 15.5081 15.9474 16.4967V35.1234C16.6277 34.0094 17.5288 33.1119 18.6319 32.4118C19.2951 31.991 20.0106 31.6599 20.7474 31.3944V16.4968ZM18.3477 53.5763C20.1559 53.5763 21.6218 52.1105 21.6218 50.3022C21.6218 48.4939 20.1559 47.0281 18.3477 47.0281C16.5394 47.0281 15.0735 48.4939 15.0735 50.3022C15.0735 52.1105 16.5394 53.5763 18.3477 53.5763ZM18.3477 57.5053C22.3258 57.5053 25.5508 54.2804 25.5508 50.3022C25.5508 47.1654 23.5458 44.497 20.7474 43.5085V42.2012C20.7474 40.6507 21.0566 39.6321 21.4614 38.9306C21.8619 38.2366 22.4498 37.6898 23.278 37.2293C25.0059 36.2688 27.3676 35.8644 30.3454 35.3544L30.8 35.2765C33.7282 34.7735 37.2671 34.1305 40.0246 32.2564C42.583 30.5175 44.2689 27.8862 44.719 24.0825C47.6917 23.1953 49.8589 20.4404 49.8589 17.1793C49.8589 13.2011 46.634 9.97614 42.6558 9.97614C38.6776 9.97614 35.4527 13.2011 35.4527 17.1793C35.4527 20.1857 37.2946 22.762 39.9115 23.8412C39.5625 26.207 38.5408 27.4611 37.3264 28.2865C35.5665 29.4826 33.0823 30.0141 29.9873 30.5458C29.7564 30.5855 29.521 30.6253 29.2818 30.6656C26.5899 31.1202 23.4277 31.6543 20.9457 33.0341C19.5154 33.8293 18.221 34.9423 17.3039 36.5316C16.5061 37.9142 16.0666 39.531 15.9686 41.3851H15.9474V42.2012V43.5087C13.1493 44.4973 11.1445 47.1656 11.1445 50.3022C11.1445 54.2804 14.3695 57.5053 18.3477 57.5053ZM45.9299 17.1793C45.9299 18.9875 44.464 20.4534 42.6558 20.4534C40.8475 20.4534 39.3816 18.9875 39.3816 17.1793C39.3816 15.371 40.8475 13.9051 42.6558 13.9051C44.464 13.9051 45.9299 15.371 45.9299 17.1793Z" fill="white"></path></svg>