<svg fill="none" xmlns="http://www.w3.org/2000/svg" viewBox="0 0 61 60"><path fill-rule="evenodd" clip-rule="evenodd" d="M44.3474 12.8351C44.3474 12.3514 44.057 11.915 43.6108 11.7282L30.3849 6.19176C30.0916 6.06897 29.7615 6.06763 29.4672 6.18803L15.9418 11.7211C15.4908 11.9056 15.1962 12.3445 15.1962 12.8318V25.9583L2.68455 31.1612C2.23696 31.3473 1.94531 31.7845 1.94531 32.2692V46.8016C1.94531 47.2827 2.23274 47.7174 2.67552 47.9058L16.5302 53.8003C16.8299 53.9278 17.1685 53.928 17.4684 53.8009L29.7715 48.585L42.0746 53.8009C42.3745 53.928 42.7131 53.9278 43.0128 53.8003L56.8675 47.9058C57.3103 47.7174 57.5977 47.2827 57.5977 46.8016V32.2692C57.5977 31.7845 57.3061 31.3473 56.8585 31.1612L44.3474 25.9583V12.8351ZM41.1081 49.5532V39.2571L31.6855 35.2624V45.5585L41.1081 49.5532ZM27.8575 20.2663L18.7297 16.3544V26.0324L27.8575 29.6836V20.2663ZM5.4788 34.9644L14.9014 38.9733V49.2673L5.4788 45.2584V34.9644ZM34.1915 32.4869L42.5417 36.027L51.1346 32.3711L42.6665 29.0968L34.1915 32.4869ZM29.6325 17.1827L20.9839 13.4762L29.9113 9.82408L38.5613 13.445L29.6325 17.1827ZM16.8768 29.097L25.3518 32.487L17.0019 36.027L8.40899 32.3711L16.8768 29.097Z" fill="white"></path></svg>