<?xml version="1.0" encoding="utf-8"?>
<!-- Generator: Adobe Illustrator 28.3.0, SVG Export Plug-In . SVG Version: 6.00 Build 0)  -->
<svg version="1.1" id="Layer_2_00000182523971487847031240000004257373109517027242_"
	 xmlns="http://www.w3.org/2000/svg" xmlns:xlink="http://www.w3.org/1999/xlink" x="0px" y="0px" viewBox="0 0 48 48"
	 style="enable-background:new 0 0 48 48;" xml:space="preserve">
<style type="text/css">
	.st0{fill:#FDFCFC;}
</style>
<path class="st0" d="M44,27.1L44,27.1L44,27.1c-0.1-0.3-0.3-0.6-0.5-0.9L34.4,7.8h-5.9v4h3.4l4.8,9.6c-0.5-0.1-1-0.1-1.5-0.1
	c-3.9,0-7.2,2.3-8.7,5.7c-0.8-0.1-1.6-0.2-2.6-0.2s-1.8,0.1-2.6,0.2c-1.5-3.3-4.8-5.7-8.7-5.7c-0.5,0-1,0-1.5,0.1l4.8-9.6h3.4v-4
	h-5.9L4.5,26.1C4.3,26.4,4.2,26.7,4,27l0,0l0,0c-0.5,1.1-0.7,2.4-0.7,3.7c0,5.2,4.2,9.5,9.5,9.5s9.4-4.2,9.5-9.3
	c0.6-0.1,1.1-0.1,1.8-0.1s1.2,0.1,1.8,0.1c0.1,5.2,4.3,9.3,9.5,9.3s9.5-4.2,9.5-9.5C44.7,29.4,44.5,28.2,44,27.1z M12.8,27
	c-2,0-3.7,1.7-3.7,3.7H6.6c0-3.4,2.8-6.2,6.2-6.2C12.8,24.5,12.8,27,12.8,27z M35.2,27c-2,0-3.7,1.7-3.7,3.7H29
	c0-3.4,2.8-6.2,6.2-6.2V27z"/>
</svg>
