<?xml version="1.0" encoding="UTF-8"?> <svg xmlns="http://www.w3.org/2000/svg" width="148" height="40" viewBox="0 0 148 40" fill="none"><path d="M59.1527 20.4913C59.1527 26.6954 54.7009 31.5972 49.1518 31.5972C46.0063 31.5972 43.7646 30.0856 42.5372 28.4951V39.5576H36.0055V9.9576H42.5372V12.4479C43.7607 10.814 46.0498 9.38533 49.1518 9.38533C54.7048 9.38533 59.1527 14.2831 59.1527 20.4913ZM42.2925 20.4913C42.2925 23.3881 44.5777 25.7166 47.5179 25.7166C50.4582 25.7166 52.7828 23.3881 52.7828 20.4913C52.7828 17.5944 50.4542 15.2264 47.5179 15.2264C44.5816 15.2264 42.2925 17.5549 42.2925 20.4913Z" fill="white"></path><path d="M63.0283 30.9856V0.367355H69.56V30.9856H63.0283Z" fill="white"></path><path d="M74.0988 22.4094V9.95768H80.6305V22.0818C80.6305 24.0828 82.2644 25.7167 84.2654 25.7167C86.2663 25.7167 87.9003 24.0828 87.9003 22.0818V9.95768H94.432V22.4094C94.432 27.6348 90.063 31.5933 84.2654 31.5933C78.4677 31.5933 74.0988 27.6348 74.0988 22.4094Z" fill="white"></path><path d="M98.4338 30.9857V19.7575C98.4338 13.798 102.68 9.38957 108.312 9.38957C109.496 9.38957 110.519 9.5948 111.414 9.91843V16.3278C110.763 15.8779 109.903 15.5109 108.885 15.5109C106.722 15.5109 104.966 17.2671 104.966 19.4299V30.9818H98.4338V30.9857Z" fill="white"></path><path d="M113.557 20.4913C113.557 14.2871 117.966 9.38533 123.558 9.38533C126.66 9.38533 128.946 10.8535 130.173 12.4479V9.9576H136.705V30.9815H130.173V28.5306C128.949 30.1211 126.66 31.5932 123.558 31.5932C117.966 31.5932 113.557 26.6954 113.557 20.4873V20.4913ZM130.418 20.4913C130.418 17.551 128.089 15.2264 125.192 15.2264C122.295 15.2264 119.927 17.5549 119.927 20.4913C119.927 23.4276 122.256 25.7166 125.192 25.7166C128.129 25.7166 130.418 23.3881 130.418 20.4913Z" fill="white"></path><path d="M141.468 30.9856V0.367355H148V30.9856H141.468Z" fill="white"></path><path d="M12.6688 39.6326H0.0670941L0 12.2349V10.2892C0 4.85067 4.96491 0.442245 11.0862 0.442245H24.5877V29.7818C24.5877 35.2005 19.6623 39.5971 13.5647 39.6287H12.6688V39.6326Z" fill="#FF8500"></path><path d="M5.88843 37.0202C7.42368 37.0202 8.75765 35.5363 8.75765 33.705V13.9085C7.2224 13.9085 5.88843 15.3925 5.88843 17.2237V37.0202Z" fill="white"></path><path d="M10.8534 30.8474C12.3886 30.8474 13.7226 29.3635 13.7226 27.5244V20.9216C12.1874 20.9216 10.8534 22.4055 10.8534 24.2368V30.8514V30.8474Z" fill="white"></path><path d="M18.6954 20.2548C17.1601 20.2548 15.8262 21.7388 15.8262 23.57V26.5655C17.3614 26.5655 18.6954 24.5488 18.6954 22.7175V20.2548Z" fill="white"></path><path d="M10.8534 19.6153C12.3886 19.6153 13.7226 18.1313 13.7226 16.2922V9.68939C12.1874 9.68939 10.8534 11.1733 10.8534 13.0046V19.6192V19.6153Z" fill="white"></path><path d="M18.6954 13.056C17.1601 13.056 15.8262 14.5399 15.8262 16.3712V19.3667C17.3614 19.3667 18.6954 17.35 18.6954 15.5187V13.056Z" fill="white"></path><path d="M18.6954 5.53768C17.1601 5.53768 15.8262 7.02163 15.8262 8.85288V11.8484C17.3614 11.8484 18.6954 9.83166 18.6954 8.0004V5.53768Z" fill="white"></path></svg> 