<svg width="177" height="28" viewBox="0 0 177 28" fill="none" xmlns="http://www.w3.org/2000/svg">
<path d="M47.7431 21.5961C51.3876 16.2103 50.8246 8.82944 46.0542 4.06251C43.3514 1.35971 39.8057 0.00336673 36.26 0.00665881C32.9283 0.00665881 29.5999 1.19839 26.9662 3.58515C27.088 3.74317 27.2131 3.89461 27.3316 4.05592C28.3193 5.41226 29.0864 6.8937 29.6197 8.45415C29.8008 8.22699 29.9983 8.00972 30.2057 7.79902C31.8748 6.12664 34.0674 5.29045 36.2567 5.29045C38.446 5.29045 40.6386 6.12664 42.3077 7.79902C44.9975 10.4887 45.5209 14.5215 43.8847 17.7378C42.3769 16.23 39.9275 16.23 38.4197 17.7378L37.409 18.7485L46.2814 27.6174C46.7917 28.1276 47.618 28.1276 48.1283 27.6174L50.9464 24.7993L47.7431 21.5961Z" fill="white"/>
<path d="M37.0535 22.3664C34.6074 22.5936 32.0823 21.7771 30.209 19.9039C28.5597 18.2546 27.7235 16.1082 27.7004 13.9486V13.7543C27.6807 10.7487 26.7029 7.97014 25.0568 5.71177C22.5383 2.24849 18.456 0 13.8502 0C6.20247 0 0 6.20229 0 13.8531C0 21.4973 6.20247 27.7029 13.8502 27.7029V27.6996C17.4255 27.6996 20.6815 26.34 23.1374 24.1178C23.0123 23.9598 22.8938 23.8018 22.7753 23.6405C21.7877 22.2841 21.0206 20.8027 20.4872 19.2455C18.9169 21.1747 16.53 22.4125 13.8469 22.4125V22.4158V22.4125C9.12263 22.4125 5.28724 18.5805 5.28724 13.8531C5.28724 9.12566 9.12263 5.29038 13.8469 5.29038C18.5745 5.29038 22.4099 9.12237 22.4099 13.8531C22.4099 16.7139 23.2922 19.5714 25.0535 21.9911C25.4716 22.5705 25.9457 23.1203 26.4658 23.6437C30.5021 27.6831 36.4082 28.6971 41.3926 26.7087L37.0535 22.3664Z" fill="white"/>
<path d="M65.9949 24.15L67.5535 19.3614H75.1311L76.6897 24.15H81.4475L74.2083 3.14999H68.4866L61.2371 24.15H65.9949ZM68.6814 15.8956L71.2654 7.94882H71.4294L74.0134 15.8956H68.6814Z" fill="white"/>
<path d="M88.0974 24.4063C90.6403 24.4063 91.9631 22.94 92.5681 21.6275H92.7526V24.15H97.0593V3.14999H92.7014V11.0455H92.5681C91.9836 9.76377 90.7224 8.19492 88.0871 8.19492C84.6316 8.19492 81.7092 10.8814 81.7092 16.2955C81.7092 21.566 84.5085 24.4063 88.0974 24.4063ZM89.4816 20.9303C87.3386 20.9303 86.1696 19.023 86.1696 16.275C86.1696 13.5475 87.3181 11.671 89.4816 11.671C91.6042 11.671 92.7937 13.4654 92.7937 16.275C92.7937 19.0846 91.5837 20.9303 89.4816 20.9303Z" fill="white"/>
<path d="M119.164 13.65C119.164 6.77988 114.899 2.86289 109.331 2.86289C103.732 2.86289 99.4974 6.77988 99.4974 13.65C99.4974 20.4894 103.732 24.4371 109.331 24.4371C110.643 24.4371 111.884 24.2218 113.012 23.7911L114.704 25.8726H118.846L115.842 22.0992C117.893 20.2638 119.164 17.3927 119.164 13.65ZM107.793 16.8492L110.479 20.3971C110.12 20.4688 109.731 20.5099 109.331 20.5099C106.101 20.5099 103.999 18.1002 103.999 13.65C103.999 9.1998 106.101 6.79013 109.331 6.79013C112.551 6.79013 114.663 9.1998 114.663 13.65C114.663 15.9366 114.099 17.69 113.125 18.8487L111.566 16.8492H107.793Z" fill="white"/>
<path d="M131.605 17.4439C131.615 19.5562 130.17 20.6637 128.601 20.6637C126.95 20.6637 125.883 19.505 125.873 17.649V8.4H121.505V18.4283C121.515 22.1095 123.669 24.3551 126.837 24.3551C129.206 24.3551 130.908 23.1349 131.615 21.2892H131.779V24.15H135.973V8.4H131.605V17.4439Z" fill="white"/>
<path d="M138.601 24.15H142.969V8.4H138.601V24.15ZM140.795 6.36972C142.098 6.36972 143.164 5.37509 143.164 4.15488C143.164 2.94492 142.098 1.95029 140.795 1.95029C139.503 1.95029 138.437 2.94492 138.437 4.15488C138.437 5.37509 139.503 6.36972 140.795 6.36972Z" fill="white"/>
<path d="M152.718 24.4576C156.912 24.4576 159.547 21.9967 159.752 18.377H155.63C155.374 20.0587 154.267 21.002 152.77 21.002C150.729 21.002 149.406 19.2896 149.406 16.275C149.406 13.3014 150.739 11.5992 152.77 11.5992C154.369 11.5992 155.395 12.6554 155.63 14.2242H159.752C159.568 10.5841 156.81 8.19492 152.698 8.19492C147.919 8.19492 144.966 11.5069 144.966 16.3365C144.966 21.1251 147.868 24.4576 152.718 24.4576Z" fill="white"/>
<path d="M161.683 24.15H166.051V19.1461L167.23 17.8028L171.527 24.15H176.643L170.501 15.2188L176.346 8.4H171.332L166.287 14.378H166.051V3.14999H161.683V24.15Z" fill="white"/>
</svg>
