<svg fill="none" xmlns="http://www.w3.org/2000/svg" viewBox="0 0 60 60"><path fill-rule="evenodd" clip-rule="evenodd" d="M37.1991 17.9968C37.1991 19.3223 38.2736 20.3968 39.5991 20.3968L56.399 20.3968C57.7245 20.3968 58.799 19.3223 58.799 17.9968L58.799 13.1969C58.799 11.8714 57.7245 10.7969 56.399 10.7969L39.5991 10.7969C38.2736 10.7969 37.1991 11.8714 37.1991 13.1969L37.1991 13.7969L37.1991 17.3969L37.1991 17.9968ZM34.7991 13.7969L23.769 13.7969C20.7867 13.7969 18.369 16.2145 18.369 19.1968L18.369 26.3968C18.369 27.3909 17.5631 28.1968 16.569 28.1968L7.48783 28.1968L7.48222 28.1968L3.59921 28.1968L1.19922 28.1968L1.19922 31.7968L3.59921 31.7968L7.48222 31.7968L7.48409 31.7968C8.47734 31.7978 9.28221 32.6033 9.28221 33.5968L9.28221 40.7968C9.28221 43.7791 11.6999 46.1968 14.6822 46.1968L19.454 46.1968L19.454 42.5968L14.6822 42.5968C13.6881 42.5968 12.8822 41.7909 12.8822 40.7968L12.8822 33.5968C12.8822 32.9657 12.7739 32.3598 12.5749 31.7968L16.569 31.7968L26.3991 31.7968L26.3991 28.1968L21.6617 28.1968C21.8607 27.6338 21.969 27.028 21.969 26.3968L21.969 19.1968C21.969 18.2027 22.7749 17.3969 23.769 17.3969L34.7991 17.3969L34.7991 13.7969ZM28.7991 32.3968L28.7991 31.7968L28.7991 28.1968L28.7991 27.5968C28.7991 26.2713 29.8736 25.1968 31.1991 25.1968L47.9991 25.1968C49.3245 25.1968 50.3991 26.2713 50.3991 27.5968L50.3991 32.3968C50.3991 33.7223 49.3245 34.7968 47.9991 34.7968L31.1991 34.7968C29.8736 34.7968 28.7991 33.7223 28.7991 32.3968ZM21.5991 46.7968C21.5991 48.1222 22.6737 49.1967 23.9991 49.1967L40.7991 49.1967C42.1246 49.1967 43.1991 48.1222 43.1991 46.7968L43.1991 41.9968C43.1991 40.6713 42.1246 39.5968 40.7991 39.5968L23.9991 39.5968C22.6737 39.5968 21.5991 40.6713 21.5991 41.9968L21.5991 46.7968Z" fill="white"></path></svg>