<svg fill="none" xmlns="http://www.w3.org/2000/svg" viewBox="0 0 61 60"><path fill-rule="evenodd" clip-rule="evenodd" d="M12.8305 6C10.8422 6 9.23047 7.61177 9.23047 9.59998V50.3998C9.23047 52.3881 10.8422 53.9998 12.8305 53.9998H48.8303C50.8185 53.9998 52.4303 52.3881 52.4303 50.3998V9.59999C52.4303 7.61177 50.8185 6 48.8303 6H12.8305ZM14.0282 17.9976C14.0282 14.0212 17.2517 10.7977 21.228 10.7976V17.9974H28.4281V17.9976C28.4281 21.974 25.2046 25.1976 21.2282 25.1976C17.2517 25.1976 14.0282 21.974 14.0282 17.9976ZM14.0306 29.9997H38.0305V34.7997H14.0306V29.9997ZM47.6305 39.5996H14.0306V44.3996H47.6305V39.5996Z" fill="white"></path></svg>