<svg fill="none" xmlns="http://www.w3.org/2000/svg" viewBox="0 0 75 75"><g clip-path="url(#planeIcon_svg__clip0_819_8437)"><path d="M27.734 44.2969L19.541 37.6847L21.6478 35.3888L29.6848 37.6847L33.8983 33.4602L23.2864 25.4705L26.5636 23.2664L42.8716 28.2255C46.4934 25.639 47.3339 25.0221 50.3288 23.563C50.7359 23.3647 51.1666 23.2185 51.6095 23.1236L53.8861 22.6359C54.8395 22.4316 55.8203 22.8355 56.3534 23.6519C57.0244 24.6794 56.7962 26.0515 55.8103 26.7822C46.7735 33.4802 33.5411 41.138 27.734 44.2969Z" fill="#192227" data-svg-origin="0 0" transform="matrix(1,0,0,1,0,0)" style="translate: none; rotate: none; scale: none; transform-origin: 0px 0px;"></path><rect x="23.5938" y="48.6406" width="25" height="4" fill="#192227"></rect></g><defs><clipPath id="planeIcon_svg__clip0_819_8437"><rect width="75" height="75" rx="37.5" fill="white"></rect></clipPath></defs></svg>