<?xml version="1.0" encoding="utf-8"?>
<!-- Generator: Adobe Illustrator 28.3.0, SVG Export Plug-In . SVG Version: 6.00 Build 0)  -->
<svg version="1.1" id="Layer_2_00000178888546199865044720000004521208842406091704_"
	 xmlns="http://www.w3.org/2000/svg" xmlns:xlink="http://www.w3.org/1999/xlink" x="0px" y="0px" viewBox="0 0 48 48"
	 style="enable-background:new 0 0 48 48;" xml:space="preserve">
<style type="text/css">
	.st0{fill-rule:evenodd;clip-rule:evenodd;fill:#FDFCFC;}
</style>
<path class="st0" d="M37.7,28c4.3-6-1.5-13-7.2-11.5c1.9-3.4,0.3-9.8-6.3-10.2c0,0-1.4,6.6-6.9,7.5c-6.9,1.1-10.2,8.8-5.1,13.7
	C8.1,28,5,31.5,5,35.6c0,4.5,3.6,8.1,8.1,8.1h21.7c4.5,0,8.1-3.7,8.1-8.1C43,32.1,40.8,29.1,37.7,28L37.7,28z M14.3,34.6h-1.1
	c-0.6,0-1,0.5-1,1v0.8H8.9v-0.8c0-2.3,1.9-4.3,4.3-4.3h1.1V34.6z M16.8,22c-0.1,1-0.3,1.9-0.3,1.9l-3.2-0.5c0,0,0.2-1,0.3-1.9
	c0.3-1.6,1.7-3.5,4.3-3.8l0.4,3.2C17.3,21,16.8,21.6,16.8,22L16.8,22z"/>
</svg>
