<svg fill="none" xmlns="http://www.w3.org/2000/svg" viewBox="0 0 47 46" class="sc-03-Team__TeamIcon-sc-19c161k-3 jMoGvY"><path d="M23.2553 19.6967C28.1767 19.6967 32.1662 15.7072 32.1662 10.7859C32.1662 5.86453 28.1767 1.875 23.2553 1.875C18.334 1.875 14.3445 5.86453 14.3445 10.7859C14.3445 15.7072 18.334 19.6967 23.2553 19.6967Z" fill="#192227"></path><path d="M23.2556 22.632C16.5722 22.632 11.1543 28.0499 11.1543 34.7333V43.919H35.3569V34.7333C35.3569 28.0499 29.9389 22.632 23.2556 22.632Z" fill="#192227"></path><path fill-rule="evenodd" clip-rule="evenodd" d="M37.2366 36.2042H46.1599V29.3043C46.1599 24.2842 42.0902 20.2146 37.0701 20.2146C34.5635 20.2146 32.2938 21.2292 30.6494 22.8701C34.605 25.3397 37.2366 29.7318 37.2366 34.7386V36.2042ZM32.5588 16.2613C33.7487 17.3474 35.3319 18.0098 37.0699 18.0098C40.7665 18.0098 43.7632 15.0131 43.7632 11.3165C43.7632 7.61981 40.7665 4.62311 37.0699 4.62311C35.5151 4.62311 34.0841 5.15327 32.9478 6.04267C33.6511 7.47558 34.046 9.08727 34.046 10.7912C34.046 12.7876 33.5039 14.6573 32.5588 16.2613ZM31.5499 7.52976C31.9474 8.53983 32.1657 9.64002 32.1657 10.7912C32.1657 12.1827 31.8467 13.4998 31.2779 14.6732C30.7048 13.6864 30.3766 12.5398 30.3766 11.3165C30.3766 9.91097 30.8098 8.60666 31.5499 7.52976ZM16.135 5.43198C17.1745 6.72522 17.7964 8.36826 17.7964 10.1566C17.7964 12.2097 16.9766 14.0714 15.6464 15.4321C14.8201 14.0804 14.3439 12.4914 14.3439 10.7912C14.3439 8.77946 15.0106 6.92344 16.135 5.43198ZM14.775 4.11638C13.3274 5.95295 12.4636 8.2712 12.4636 10.7912C12.4636 12.9339 13.0881 14.9308 14.1651 16.6097C13.0234 17.3039 11.683 17.7038 10.2492 17.7038C6.08103 17.7038 2.70204 14.3248 2.70204 10.1566C2.70204 5.98838 6.08103 2.60938 10.2492 2.60938C11.9471 2.60938 13.5141 3.17006 14.775 4.11638ZM16.6345 22.4207C12.252 24.7812 9.27344 29.412 9.27344 34.7386V38.2187H0V30.4387C0 24.7781 4.58879 20.1893 10.2494 20.1893C12.6637 20.1893 14.883 21.0241 16.6345 22.4207ZM11.1538 38.2187V34.7386C11.1538 29.9137 13.9775 25.7483 18.0625 23.8048C19.582 25.5926 20.4987 27.9086 20.4987 30.4387V38.2187H11.1538ZM35.3563 36.2042H27.9803V29.3043C27.9803 27.4736 28.5215 25.7693 29.4527 24.3427C32.9885 26.4551 35.3563 30.3204 35.3563 34.7386V36.2042Z" fill="#192227"></path></svg>