<?xml version="1.0" encoding="utf-8"?>
<!-- Generator: Adobe Illustrator 28.3.0, SVG Export Plug-In . SVG Version: 6.00 Build 0)  -->
<svg version="1.1" id="Layer_2_00000024711422647787821950000004438822702828111761_"
	 xmlns="http://www.w3.org/2000/svg" xmlns:xlink="http://www.w3.org/1999/xlink" x="0px" y="0px" viewBox="0 0 48 48"
	 style="enable-background:new 0 0 48 48;" xml:space="preserve">
<style type="text/css">
	.st0{fill:#FDFCFC;}
</style>
<g id="Layer_1-2">
	<g>
		<path class="st0" d="M35.3,30.9c0.5,0.6,0.7,1.3,0.7,2v0.9c0,0.6-0.6,1.1-1.2,0.9l-2.1-0.4c-0.1,0-0.3,0.1-0.3,0.2L32,36.4
			c-0.1,0.5-0.6,0.9-1.1,0.8L28.5,37c-0.1,0-0.2,0.1-0.3,0.2L28,38.9c-0.1,0.5-0.5,0.9-1.1,0.8l-2.3-0.2c-0.1,0-0.2,0.1-0.3,0.2
			L24,41.5c0,0.5-0.5,0.9-1,0.8l-1.4-0.1c-0.9-0.1-1.8-0.5-2.5-1.2L9.2,30.7H3V13.6h6.1l7.1-2.8c0.5-0.2,0.9,0.5,0.5,0.8l-2.4,2.2
			C13,15,12.9,16.9,14,18.3l1.9,2.2c1.5,1.8,4.1,2.2,6.1,1.1l3.4-1.9c0.2-0.1,0.5-0.1,0.6,0.1L35.3,30.9L35.3,30.9z M38.2,13.5
			L28.6,8c-1.2-0.7-2.7-0.5-3.7,0.4l-8.2,7.4c-0.2,0.2-0.2,0.5,0,0.7l1.6,1.9c0.6,0.8,1.7,1,2.6,0.5l3.1-1.7
			c1.6-0.9,3.5-0.5,4.6,0.9L38.3,30c0.6,0.7,1.4,1.1,2.3,1.1h4.1c0.1,0,0.2-0.1,0.2-0.2V13.8c0-0.1-0.1-0.2-0.2-0.2L38.2,13.5
			C38.3,13.6,38.2,13.6,38.2,13.5L38.2,13.5z"/>
	</g>
</g>
</svg>
